<?xml version="1.0" encoding="UTF-8" standalone="no"?>
<!-- Created with Inkscape (http://www.inkscape.org/) -->

<svg
   version="1.1"
   id="svg242"
   width="16"
   height="16"
   viewBox="0 0 16 16"
   xmlns="http://www.w3.org/2000/svg"
   xmlns:svg="http://www.w3.org/2000/svg">
  <defs
     id="defs246" />
  <g
     id="g248">
    <path
       style="fill:#000000;stroke-width:0.0102421"
       d="m 1.2133552,15.994353 c -0.09693,-0.0089 -0.27711232,-0.04633 -0.36538266,-0.0759 -0.18991236,-0.06362 -0.33264461,-0.148958 -0.466551,-0.27895 C 0.12487018,15.390451 -2.7771885e-4,15.043801 4.6273123e-7,14.582995 5.4124058e-4,13.687244 0.52216805,12.559337 1.3152668,11.739013 c 0.139586,-0.144378 0.2414874,-0.23042 0.3896115,-0.328974 0.1483401,-0.0987 0.4968666,-0.272159 0.778245,-0.387333 0.387193,-0.158485 0.5943263,-0.248407 0.7885172,-0.342315 0.5051821,-0.2443 0.909505,-0.523229 1.255711,-0.8662729 C 4.671767,9.671021 4.7022728,9.6213475 4.7419433,9.4646941 4.7698003,9.3546911 4.7801633,9.0439924 4.7619703,8.864231 4.7013978,8.2657072 4.4544969,7.4019559 4.0689877,6.4399191 4.0105914,6.2941922 3.9628126,6.1697212 3.9628126,6.1633175 3.9628126,6.1490052 10.107922,0 10.122225,0 c 0.0056,0 1.330436,1.3207443 2.944008,2.9349872 L 16,5.8699747 12.916277,8.9549656 9.8325541,12.039957 9.6241006,11.945132 C 8.5970322,11.477919 7.6734904,11.202853 7.0553122,11.180048 c -0.2827175,-0.01043 -0.4660763,0.01948 -0.6426523,0.104835 -0.1097704,0.05306 -0.2000529,0.13545 -0.33588,0.306515 -0.2319386,0.29211 -0.4057745,0.603368 -0.7981331,1.429076 -0.4730514,0.995525 -0.6562349,1.297604 -0.9878392,1.628998 -0.8077818,0.807268 -1.9966208,1.361459 -2.8967762,1.350364 -0.076844,-9.42e-4 -0.158148,-0.0034 -0.1806762,-0.0055 z M 2.0530405,14.95268 c 0.089629,-0.02428 0.2362798,-0.09994 0.3095051,-0.159681 0.1251988,-0.102135 0.2246028,-0.25464 0.2709814,-0.415738 0.033409,-0.116048 0.0336,-0.322663 4.055e-4,-0.437867 -0.1043843,-0.362265 -0.4043314,-0.590571 -0.7805729,-0.594137 -0.1518858,-0.0014 -0.2509525,0.02046 -0.3847956,0.08505 -0.2105704,0.101618 -0.3640229,0.292232 -0.4239351,0.526599 -0.028037,0.109676 -0.028519,0.289811 -0.00106,0.397206 0.078413,0.306717 0.3164266,0.537821 0.6257625,0.607598 0.085212,0.01922 0.297924,0.01422 0.3837129,-0.009 z M 10.416634,10.584877 10.997712,10.003494 8.4965679,7.5013377 5.995424,4.9991807 5.4117818,5.5831299 4.8281397,6.1670802 l 2.4985472,2.49959 c 1.3742009,1.3747748 2.5008699,2.4995898 2.5037087,2.4995898 0.00284,0 0.2666464,-0.261622 0.5862384,-0.581383 z m 1.697271,-2.5215097 c 0.163198,-0.055448 0.318477,-0.1459215 0.517123,-0.3012995 0.0967,-0.075639 1.250431,-1.2246509 1.712796,-1.7057938 L 14.524115,5.8686624 12.328283,3.671746 C 11.120576,2.4634421 10.126748,1.4760602 10.119777,1.4775638 10.112777,1.4790675 9.9077487,1.6786327 9.6640942,1.921042 9.4204396,2.1634514 8.9330841,2.6476864 8.5810819,2.99712 8.2290797,3.3465535 7.919564,3.657674 7.8932691,3.6884989 7.7386431,3.8697639 7.6386295,4.1128392 7.6391737,4.306058 c 5.878e-4,0.2085549 0.1096853,0.4055551 0.2629111,0.4747437 0.079534,0.035913 0.2461162,0.044734 0.370116,0.019598 0.2097728,-0.042523 0.5151976,-0.1801892 0.764564,-0.3446175 0.509337,-0.3358489 0.8997987,-0.5049354 1.0994732,-0.4761188 0.184523,0.02663 0.25178,0.1487671 0.21284,0.3865068 -0.0349,0.2130503 -0.133047,0.4870037 -0.305437,0.8525238 -0.2172086,0.460551 -0.2465595,0.5499148 -0.2475511,0.7537186 -5.264e-4,0.1080976 0.00302,0.1384309 0.022745,0.1946412 0.042373,0.1207431 0.1253893,0.2244213 0.2151031,0.2686418 0.04232,0.02086 0.06189,0.023275 0.185554,0.022893 0.152085,-4.713e-4 0.167849,-0.00369 0.4777,-0.097662 0.264574,-0.080238 0.365503,-0.1025554 0.492838,-0.1089776 0.142527,-0.00719 0.221048,0.010851 0.303098,0.06963 0.114626,0.082114 0.165156,0.2063269 0.164267,0.4037873 -6.45e-4,0.1424497 -0.02126,0.2611266 -0.09609,0.5531909 -0.09295,0.36276 -0.112368,0.493812 -0.08933,0.6027711 0.0099,0.047007 0.07359,0.1198181 0.137504,0.1572896 0.08824,0.051732 0.149934,0.065027 0.284262,0.061254 0.106031,-0.00298 0.136221,-0.00798 0.220162,-0.036505 z"
       id="path360" />
  </g>
</svg>
